<svg width="13" height="14" viewBox="0 0 13 14" fill="none" xmlns="http://www.w3.org/2000/svg">
<path d="M9.92058 1.64551L10.2741 1.29195L9.92058 0.938401L9.56703 1.29195L9.92058 1.64551ZM12.2396 3.96452L12.5931 4.31807L12.9467 3.96452L12.5931 3.61097L12.2396 3.96452ZM2.96354 13.2406L2.96354 13.7406H3.17065L3.3171 13.5941L2.96354 13.2406ZM0.644531 10.9216L0.290978 10.568L0.144531 10.7145L0.144531 10.9216H0.644531ZM0.644532 13.2406H0.144532L0.144532 13.7406H0.644532L0.644532 13.2406ZM10.3071 5.89703L10.6606 6.25058L10.3071 5.89703ZM9.56703 1.99906L11.886 4.31807L12.5931 3.61097L10.2741 1.29195L9.56703 1.99906ZM2.96354 12.7406L0.644532 12.7406L0.644532 13.7406L2.96354 13.7406L2.96354 12.7406ZM1.14453 13.2406L1.14453 10.9216L0.144531 10.9216L0.144532 13.2406H1.14453ZM0.998085 11.2751L8.34163 3.93157L7.63452 3.22446L0.290978 10.568L0.998085 11.2751ZM8.34163 3.93157L10.2741 1.99906L9.56703 1.29195L7.63452 3.22446L8.34163 3.93157ZM11.886 3.61097L9.95353 5.54348L10.6606 6.25058L12.5931 4.31807L11.886 3.61097ZM9.95353 5.54348L2.60999 12.887L3.3171 13.5941L10.6606 6.25058L9.95353 5.54348ZM7.63452 3.93157L9.95353 6.25058L10.6606 5.54348L8.34163 3.22446L7.63452 3.93157ZM0.290978 11.2751L2.60999 13.5941L3.3171 12.887L0.998085 10.568L0.290978 11.2751Z" fill="black"/>
</svg>
